<?xml version="1.0" encoding="UTF-8"?>
<!DOCTYPE svg PUBLIC "-//W3C//DTD SVG 1.1//EN" "http://www.w3.org/Graphics/SVG/1.1/DTD/svg11.dtd">
<!-- Creator: CorelDRAW 2020 (64 Bit) -->
<svg xmlns="http://www.w3.org/2000/svg" xml:space="preserve" width="140px" height="140px" version="1.1" style="shape-rendering:geometricPrecision; text-rendering:geometricPrecision; image-rendering:optimizeQuality; fill-rule:evenodd; clip-rule:evenodd"
viewBox="0 0 140 140"
 xmlns:xlink="http://www.w3.org/1999/xlink"
 xmlns:xodm="http://www.corel.com/coreldraw/odm/2003">
 <defs>
  <style type="text/css">
   <![CDATA[
    .fil2 {fill:#323232}
    .fil0 {fill:#343434}
    .fil1 {fill:#575757}
   ]]>
  </style>
 </defs>
 <g id="Camada_x0020_1">
  <metadata id="CorelCorpID_0Corel-Layer"/>
  <g id="_2325873687600">
   <path class="fil0" d="M93.43 79.29c-0.94,-0.55 -1.28,-0.25 -1.23,-2.02 0.02,-0.97 0.21,-2.04 -0.31,-2.84 -0.42,0.08 -0.21,0.02 -0.6,0.26l-2.01 1.63c-2.17,1.85 -18.16,14.78 -18.94,15.02 -1.32,0.08 -8.05,-3.2 -9.66,-3.97 -12.17,-5.78 -26.2,-10.16 -38.77,-15.53 -3.69,-1.57 -3.6,-6.38 -3.23,-9.89 0.69,-6.51 2.12,-5.23 7.12,-3.19l29.24 11.5c3.28,1.34 6.54,2.52 9.84,3.74 1.63,0.61 3.6,1.52 5.23,0.61 0.64,-0.35 1.23,-0.9 1.95,-1.44 0.72,-0.54 1.16,-0.88 1.94,-1.47l46.65 -35.05c1.02,-0.77 3.05,-2.06 3.41,-3.4 0.64,-2.33 -1.34,-3.07 -2.89,-3.68 -12.21,-4.78 -27.08,-11.23 -39.17,-15.15 -7.59,-2.46 -9.12,-3.81 -15.61,0.69 -9.34,6.46 -19.12,12.61 -28.32,19.21 -6.63,4.75 -13.3,9.29 -19.71,14.23 -1.4,1.07 -2.25,1.74 -3.09,3.71 -1.38,3.24 -1.79,8.19 -1.51,11.99 0.15,2.04 0.5,3.94 0.9,5.89 0.49,2.4 -0.88,7.07 -0.4,11.97 0.2,1.98 0.81,4.08 0.96,5.86 0.11,1.39 -1.52,6.06 -0.94,12.08 0.32,3.29 0.65,8.23 3.68,9.95 5.88,3.31 12.63,5.81 18.86,8.29 6.35,2.53 13.1,5.22 19.49,7.91 2.55,1.07 12.41,5.52 14.99,5.36 2.44,-0.14 4.43,-2.66 6.06,-4.11 4.12,-3.65 8.88,-7.15 13.19,-10.58 5.11,-4.07 10.04,-7.96 15.09,-12.07 3.68,-2.98 7.73,-5.95 11.32,-9.05 3.73,-3.21 7.62,-6.06 11.45,-9.14 0.68,-0.55 3.3,-2.47 3.64,-3.19 0.93,-2 -0.76,-4 -2.93,-3.41 -1.25,0.34 -29.42,23.25 -30.34,23.98l-22.76 18.23c-1.28,1 -2.52,1.88 -3.8,2.98 -2.12,1.84 -2.12,1.07 -4.7,-0.04 -3.21,-1.38 -6.16,-2.79 -9.37,-4.2 -3.2,-1.41 -6.37,-2.61 -9.66,-3.92 -6.44,-2.59 -13.07,-5.17 -19.53,-7.62 -6.72,-2.56 -10.14,-2.7 -9.97,-10.34 0.02,-1.02 0.12,-2.1 0.24,-3.07 0.18,-1.39 0.61,-2.13 0.09,-2.99 1.78,0.56 4.19,2.07 6.16,2.91 2.18,0.94 4.35,1.79 6.53,2.69 8.55,3.53 17.3,7.29 26,10.61 2.62,1 11.21,5.01 13.74,4.61 1.1,-0.18 2.3,-1.02 2.85,-1.53 5.64,-5.19 11.9,-9.59 17.71,-14.54l4.97 -4c10.41,-7.88 20.29,-16.38 30.63,-24.41 0.91,-0.71 1.67,-1.34 2.56,-2.05 3.65,-2.88 1.1,-5.02 -0.5,-5.09 -1.71,-0.08 -6.82,4.59 -8.14,5.66l-48.38 38.67c-0.63,0.5 -2,1.72 -2.63,2.02 -1.58,0.11 -12.48,-5.25 -14.89,-6.25 -10.05,-4.18 -20.31,-7.89 -30.45,-11.98 -3.03,-1.22 -5.09,-1.47 -6.03,-4.64 -0.93,-3.17 -0.28,-6.31 0.1,-9.5l9.4 4.13c3.37,1.32 6.6,2.69 9.99,4.09 6.65,2.74 13.37,5.46 19.98,8.13 3.17,1.28 6.65,2.8 9.99,3.83 3.63,1.14 6.66,-2.43 8.95,-4.58 1.28,-1.2 2.55,-2.11 3.87,-3.14 3.94,-3.08 7.7,-6.46 11.7,-9.37z"/>
   <path class="fil0" d="M92.56 73.9c-0.13,0.9 0.14,0.68 0.15,2.14 0,0.97 -0.25,1.78 0.31,2.32 0.61,0.52 0.48,-1.92 0.48,-2.57 -0.01,-2.01 -0.05,-2.34 1.98,-2.22 0.95,2.08 0.3,1.81 0.7,3.28 0.92,-0.3 8.04,-6.19 9.53,-7.38l25.79 -20.78c0.63,-1.16 0.24,-2.51 -0.39,-3.1 -1.98,-1.87 -4.43,0.89 -5.56,1.77 -1.68,1.29 -3.08,2.45 -4.74,3.74l-18.83 15.12c-0.72,0.54 -9.14,7.02 -9.42,7.68z"/>
   <path class="fil1" d="M92.56 73.9c-0.52,0.21 -0.38,0.09 -0.67,0.53 0.52,0.8 0.33,1.87 0.31,2.84 -0.05,1.77 0.29,1.47 1.23,2.02 0.47,-0.39 0.39,-0.38 0.62,-0.74 -0.12,-0.29 -0.07,0.02 -0.05,-0.66 0,-0.36 0.03,-0.73 0.02,-1.11 0,-1.04 -0.17,-3.34 1.12,-2.56 0.74,0.45 0.37,2.17 0.53,3.06 0.78,-0.19 0.39,0.04 0.51,-0.43 -0.4,-1.47 0.25,-1.2 -0.7,-3.28 -2.03,-0.12 -1.99,0.21 -1.98,2.22 0,0.65 0.13,3.09 -0.48,2.57 -0.56,-0.54 -0.31,-1.35 -0.31,-2.32 -0.01,-1.46 -0.28,-1.24 -0.15,-2.14z"/>
   <path class="fil2" d="M94.05 78.55c0.63,-0.18 1.32,-0.68 1.62,-1.27 -0.16,-0.89 0.21,-2.61 -0.53,-3.06 -1.29,-0.78 -1.12,1.52 -1.12,2.56 0.01,0.38 -0.02,0.75 -0.02,1.11 -0.02,0.68 -0.07,0.37 0.05,0.66z"/>
  </g>
 </g>
</svg>
